<?xml version="1.0" encoding="UTF-8" standalone="no"?>
<!-- Created with Inkscape (http://www.inkscape.org/) -->

<svg
   width="120mm"
   height="45.898392mm"
   viewBox="0 0 120 45.898392"
   version="1.1"
   id="svg1"
   xmlns="http://www.w3.org/2000/svg"
   xmlns:svg="http://www.w3.org/2000/svg">
  <defs
     id="defs1" />
  <path
     id="path37"
     d="M 87.994841,0 H 120 V 12.196994 H 87.994841 Z m 32.003699,14.660333 v 10.96715 h -16.22519 c -2.12687,0 -3.917258,1.339326 -3.917258,4.137679 v 16.11498 H 87.994841 V 25.627483 c 0,-6.043392 4.811357,-10.96715 12.421069,-10.96715 h 2.12613"
     style="fill:#f5821f;fill-opacity:1;fill-rule:nonzero;stroke:none;stroke-width:0.729879" />
  <path
     id="path38"
     d="M 53.265779,17.141189 H 65.462773 V 45.89839 H 53.265779 Z M 0,0.018248 H 31.332939 V 12.214512 H 0 Z M 83.367414,17.141189 C 82.920728,6.844067 76.654724,0.018248 65.462773,0.018248 H 35.026124 V 33.36638 h -16.78428 c -3.245038,0 -5.707647,-2.907833 -5.707647,-4.36613 V 14.679309 H 0.1131312 V 31.350457 C -8e-7,39.742597 6.6039374,45.89839 15.444222,45.89839 H 48.117947 V 12.214512 h 18.911875 c 1.453916,0 3.917986,2.129783 3.580052,3.134097 0.224802,0 0.113854,1.79258 0.224802,1.79258 V 45.89839 h 12.532738"
     style="fill:#231f20;fill-opacity:1;fill-rule:nonzero;stroke:none;stroke-width:0.729879" />
</svg>
